<svg xmlns="http://www.w3.org/2000/svg" width="13.593" height="12" viewBox="0 0 13.593 12">
  <defs>
    <style>
      .cls-1 {
        fill: #fff;
        fill-rule: evenodd;
      }
    </style>
  </defs>
  <path id="v" class="cls-1" d="M747.8,10342.6c1.2-1,2.9-3.1,4.226-3.1s1.651,1.6,1.832,3c0.182,1.5.7,4.6,1.4,4.6s2.3-2.8,2.211-3.9c-0.091-1-1.248-.9-1.885-0.5,0.585-2.2,1.937-3.3,3.666-3.3s2.146,1.2,2.146,2.7c0,2.3-4.629,9.3-7.424,9.3-1.73,0-2.158-2.5-2.509-3.8s-1.041-4.6-1.847-4.8a3.993,3.993,0,0,0-1.2.7Z" transform="translate(-747.813 -10339.4)"/>
</svg>
